<?xml version="1.0" encoding="UTF-8"?>
<svg id="Laag_1" data-name="Laag 1" xmlns="http://www.w3.org/2000/svg" viewBox="0 0 30.28 26.42">
  <defs>
    <style>
      .cls-1 {
        fill: #1d1d1b;
        stroke-width: 0px;
      }
    </style>
  </defs>
  <path class="cls-1" d="m12.51,3.7l8.41,6.97H1.42c-.79,0-1.42.56-1.42,1.25v2.6c0,.63.59,1.14,1.31,1.14h19.62l-8.44,7.29c-.36.31-.36.81,0,1.12l2.43,2.13c.35.31.92.31,1.27,0l13.45-11.63c.42-.36.65-.85.65-1.36h0c0-.51-.23-1-.65-1.36L16.24.26c-.41-.36-1.08-.35-1.49.02l-2.28,2.08c-.41.38-.4.98.04,1.34Z"/>
</svg>