<?xml version="1.0" encoding="UTF-8"?>
<svg id="Laag_1" data-name="Laag 1" xmlns="http://www.w3.org/2000/svg" viewBox="0 0 83.31 16.67">
  <defs>
    <style>
      .cls-1 {
        opacity: .49;
      }

      .cls-1, .cls-2, .cls-3 {
        fill: #fecd5a;
        stroke-width: 0px;
      }

      .cls-2 {
        opacity: .52;
      }
    </style>
  </defs>
  <polygon class="cls-3" points="46.83 16.37 41.65 12.46 36.35 16.13 38.29 10.08 33.75 6.36 39.21 6.45 41.65 .2 44.09 6.44 49.56 6.46 44.93 10.03 46.83 16.37"/>
  <polygon class="cls-3" points="29.96 16.37 24.78 12.46 19.48 16.13 21.42 10.08 16.87 6.36 22.33 6.45 24.78 .2 27.22 6.44 32.69 6.46 28.06 10.03 29.96 16.37"/>
  <g>
    <polygon class="cls-3" points="58.53 12.58 58.53 .32 56.08 6.57 50.62 6.48 55.17 10.2 53.22 16.25 58.53 12.58"/>
    <polygon class="cls-1" points="58.53 12.58 58.53 .32 60.97 6.57 66.43 6.48 61.89 10.2 63.83 16.25 58.53 12.58"/>
  </g>
  <polygon class="cls-2" points="80.58 16.67 75.4 12.75 70.1 16.42 72.04 10.38 67.49 6.65 72.95 6.75 75.4 .5 77.84 6.74 83.31 6.76 78.68 10.32 80.58 16.67"/>
  <polygon class="cls-3" points="13.08 16.17 7.91 12.26 2.6 15.93 4.55 9.88 0 6.16 5.46 6.25 7.91 0 10.35 6.24 15.81 6.26 11.19 9.83 13.08 16.17"/>
</svg>